<svg width="77" height="77" viewBox="0 0 77 77" fill="none" xmlns="http://www.w3.org/2000/svg">
<path d="M64.1667 19.25C65.0757 19.25 65.8371 19.558 66.451 20.174C67.0648 20.79 67.3729 21.5514 67.375 22.4583C67.3771 23.3652 67.0691 24.1267 66.451 24.7427C65.8328 25.3587 65.0714 25.6667 64.1667 25.6667H12.8333C11.9243 25.6667 11.1618 25.3587 10.5458 24.7427C9.92978 24.1267 9.62285 23.3652 9.62499 22.4583C9.62713 21.5514 9.93513 20.7889 10.549 20.1708C11.1629 19.5527 11.9243 19.2457 12.8333 19.25H64.1667ZM64.1667 35.2917C65.0757 35.2917 65.8371 35.5997 66.451 36.2157C67.0648 36.8317 67.3729 37.5931 67.375 38.5C67.3771 39.4069 67.0691 40.1683 66.451 40.7843C65.8328 41.4003 65.0714 41.7083 64.1667 41.7083H12.8333C11.9243 41.7083 11.1618 41.4003 10.5458 40.7843C9.92978 40.1683 9.62285 39.4069 9.62499 38.5C9.62713 37.5931 9.93513 36.8306 10.549 36.2125C11.1629 35.5943 11.9243 35.2874 12.8333 35.2917H64.1667ZM64.1667 51.3333C65.0757 51.3333 65.8371 51.6413 66.451 52.2573C67.0648 52.8733 67.3729 53.6348 67.375 54.5417C67.3771 55.4486 67.0691 56.21 66.451 56.826C65.8328 57.442 65.0714 57.75 64.1667 57.75H12.8333C11.9243 57.75 11.1618 57.442 10.5458 56.826C9.92978 56.21 9.62285 55.4486 9.62499 54.5417C9.62713 53.6348 9.93513 52.8723 10.549 52.2541C11.1629 51.636 11.9243 51.3291 12.8333 51.3333H64.1667Z" fill="white"/>
</svg>
